<?xml version="1.0" encoding="UTF-8"?>
<!DOCTYPE svg PUBLIC "-//W3C//DTD SVG 1.1//EN" "http://www.w3.org/Graphics/SVG/1.1/DTD/svg11.dtd">
<!-- Creator: CorelDRAW -->
<svg xmlns="http://www.w3.org/2000/svg" xml:space="preserve" width="2048px" height="2048px" style="shape-rendering:geometricPrecision; text-rendering:geometricPrecision; image-rendering:optimizeQuality; fill-rule:evenodd; clip-rule:evenodd"
viewBox="0 0 2048 2048"
 xmlns:xlink="http://www.w3.org/1999/xlink">
 <defs>
  <style type="text/css">
   <![CDATA[
    .fil1 {fill:none}
    .fil0 {fill:#424242}
   ]]>
  </style>
 </defs>
 <g id="Layer_x0020_1">
  <metadata id="CorelCorpID_0Corel-Layer"/>
  <path class="fil0" d="M433.526 482.52c-9.43938,0 -18.3484,3.73701 -25.0169,10.4067 -6.66969,6.66851 -10.4067,15.5788 -10.4067,25.0181l0 646.178c0,9.43938 3.73701,18.3496 10.4067,25.0181 6.66851,6.66969 15.5776,10.4067 25.0169,10.4067l1180.95 0c9.43938,0 18.3484,-3.73701 25.0169,-10.4067 6.66969,-6.66851 10.4067,-15.5788 10.4067,-25.0181l0 -646.178c0,-9.43938 -3.73701,-18.3496 -10.4067,-25.0181 -6.66851,-6.66969 -15.5776,-10.4067 -25.0169,-10.4067l-1180.95 0zm263.713 469.523l0 -248.043 183.881 0 0 41.9847 -133.811 0 0 54.9804 124.513 0 0 41.7544 -124.513 0 0 67.5119 138.547 0 0 41.8122 -188.617 0zm230.949 -248.043l91.5367 0c20.6173,0 36.326,1.55906 47.1827,4.73504 14.5536,4.27323 27.0284,11.8973 37.3666,22.8697 10.3949,10.9146 18.3071,24.313 23.7355,40.1374 5.37048,15.8823 8.08465,35.4024 8.08465,58.676 0,20.3858 -2.54055,38.0008 -7.62284,52.7847 -6.17953,18.0189 -15.0154,32.6303 -26.5654,43.7764 -8.66339,8.48977 -20.387,15.0732 -35.1709,19.8083 -11.0303,3.52323 -25.8154,5.25591 -44.354,5.25591l-94.193 0 0 -248.043zm50.0705 41.9847l0 164.247 37.3654 0c13.976,0 24.0827,-0.751182 30.3201,-2.36811 8.08583,-2.02087 14.8417,-5.42835 20.2134,-10.2791 5.37048,-4.85197 9.70158,-12.8788 13.1091,-23.9669 3.34961,-11.0894 5.08229,-26.2772 5.08229,-45.4512 0,-19.174 -1.73268,-33.8422 -5.08229,-44.1225 -3.40748,-10.2791 -8.14253,-18.3071 -14.2063,-24.0248 -6.12166,-5.77559 -13.8602,-9.64489 -23.2169,-11.6658 -6.98741,-1.61693 -20.6752,-2.36811 -41.1189,-2.36811l-22.4658 0zm199.995 -41.9847l50.0717 0 0 134.33c0,21.3106 0.635434,35.1709 1.84725,41.465 2.1378,10.1646 7.27678,18.3083 15.3047,24.4299 8.08465,6.17953 19.1162,9.23977 33.0922,9.23977 14.2063,0 24.9484,-2.8878 32.1673,-8.72009 7.2189,-5.77559 11.55,-12.9366 12.9945,-21.3685 1.50118,-8.48977 2.19449,-22.5236 2.19449,-42.1583l0 -137.218 50.0705 0 0 130.288c0,29.8004 -1.32874,50.8217 -4.04292,63.1229 -2.71418,12.3012 -7.68071,22.6382 -14.9575,31.128 -7.27678,8.4319 -17.0362,15.189 -29.165,20.2134 -12.1854,5.02441 -28.1244,7.50709 -47.7603,7.50709 -23.6788,0 -41.6386,-2.71418 -53.8831,-8.2004 -12.2433,-5.48622 -21.887,-12.5894 -28.9914,-21.3106 -7.10316,-8.72009 -11.7803,-17.9032 -14.0327,-27.489 -3.29292,-14.2075 -4.90985,-35.1709 -4.90985,-62.9504l0 -132.308zm547.627 861.48l-1403.76 0c-9.27639,0 -18.9992,-2.04449 -27.8693,-5.58189 -9.2882,-3.7063 -17.8252,-9.19371 -24.2374,-15.8788 -8.88072,-9.25867 -14.3291,-20.739 -14.3291,-33.7713 0,-5.43662 1.0748,-11.0823 3.3874,-16.8768l111.409 -279.218c2.1,-5.26536 4.54961,-10.4988 7.51654,-15.4949 2.65276,4.24843 5.77796,8.17205 9.30119,11.6953 11.8417,11.8417 28.2059,19.1929 46.2296,19.1929l1180.95 0c18.0236,0 34.3878,-7.35119 46.2296,-19.1929 3.52323,-3.52323 6.64843,-7.44686 9.30119,-11.6953 2.96693,4.99607 5.41536,10.2295 7.51654,15.4949l111.409 279.218c2.31378,5.79804 3.38859,11.4461 3.38859,16.8827 0,13.0323 -5.44607,24.5079 -14.3244,33.7677 -6.40867,6.68268 -14.9421,12.1677 -24.2292,15.8728 -8.87245,3.53977 -18.6036,5.58544 -27.8835,5.58544zm-845.573 -150.239c-15.8717,0 -28.7398,11.139 -28.7398,24.8788 0,13.7386 12.8681,24.8776 28.7398,24.8776l287.384 0c15.8705,0 28.7386,-11.139 28.7386,-24.8776 0,-13.7398 -12.8681,-24.8788 -28.7386,-24.8788l-287.384 0z"/>
 </g>
 <rect class="fil1" width="2048" height="2048"/>
</svg>
