<?xml version="1.0" encoding="UTF-8"?>
<!DOCTYPE svg PUBLIC "-//W3C//DTD SVG 1.1//EN" "http://www.w3.org/Graphics/SVG/1.1/DTD/svg11.dtd">
<!-- Creator: CorelDRAW -->
<svg xmlns="http://www.w3.org/2000/svg" xml:space="preserve" width="2048px" height="2048px" style="shape-rendering:geometricPrecision; text-rendering:geometricPrecision; image-rendering:optimizeQuality; fill-rule:evenodd; clip-rule:evenodd"
viewBox="0 0 2048 2048"
 xmlns:xlink="http://www.w3.org/1999/xlink">
 <defs>
  <style type="text/css">
   <![CDATA[
    .fil1 {fill:none}
    .fil0 {fill:#424242;fill-rule:nonzero}
   ]]>
  </style>
 </defs>
 <g id="Layer_x0020_1">
  <metadata id="CorelCorpID_0Corel-Layer"/>
  <g id="_293118016">
   <path id="_292111344" class="fil0" d="M1250.35 1540.12l61.65 0c-19.265,39.2233 -48.9048,69.8504 -88.8201,92.0812 -45.7441,25.4894 -101.567,38.2347 -167.367,38.2347 -63.6272,0 -118.658,-10.7693 -164.995,-32.3067 -46.2378,-21.5386 -80.719,-53.2536 -103.344,-95.243 -22.526,-41.9906 -33.7902,-87.6355 -33.7902,-137.035 0,-54.241 12.8445,-104.728 38.4331,-151.559 13.2933,-24.1843 29.1272,-45.2717 47.4886,-63.2363l67.1304 13.898c-31.689,20.8382 -55.9831,48.8256 -72.7276,84.1158 -18.4748,38.6303 -27.6638,78.9414 -27.6638,120.832 0,40.7055 10.2756,77.7556 30.8256,111.15 20.55,33.3945 49.3996,57.6993 86.5489,73.1115 37.1481,15.3142 79.6323,23.0209 127.452,23.0209 46.1386,0 85.8568,-6.42166 119.053,-19.2662 33.0981,-12.8445 59.8725,-32.1095 80.1272,-57.7973zm-8.80867 -352.031c9.55749,10.5165 17.9587,22.0784 25.2095,34.6866 19.9571,34.7776 29.9362,72.9142 29.9362,114.212 0,49.2024 -15.215,93.6627 -45.4477,133.38 -38.0386,50.191 -86.7461,75.2859 -146.224,75.2859 -16.0051,0 -28.0595,-2.76614 -36.1607,-8.39764 -8.10119,-5.6315 -13.5354,-13.8319 -16.2036,-24.6012 -22.7232,22.0323 -49.004,32.9988 -78.743,32.9988 -32.0114,0 -58.5886,-11.0658 -79.7316,-33.0981 -21.1429,-22.1315 -31.715,-51.4748 -31.715,-88.2284 0,-45.3485 12.7453,-86.6469 38.2359,-124.091 30.9248,-45.5469 70.4445,-68.3693 118.658,-68.3693 34.3819,0 59.7745,13.1398 76.1753,39.4205l7.21182 -32.2087 76.3725 0 -43.6701 207.578c-2.66693,13.141 -4.05,21.6378 -4.05,25.4906 0,4.84134 1.08662,8.39764 3.35906,10.8685 2.17323,2.37047 4.84134,3.5563 7.90394,3.5563 9.28702,0 21.2421,-5.53229 35.9634,-16.7953 19.6606,-14.6232 35.5677,-34.2839 47.7201,-58.9843 12.1524,-24.6992 18.1784,-50.289 18.1784,-76.767 0,-47.4237 -17.0917,-87.1418 -51.4748,-119.054 -4.67953,-4.34292 -9.61182,-8.38938 -14.7933,-12.1429l63.2894 -14.7378zm-304.09 233.077c0,24.502 4.94055,42.5823 14.9185,54.1418 9.97914,11.5595 22.2307,17.3882 36.8528,17.3882 11.0658,0 21.3402,-2.66693 31.0229,-8.10119 7.31103,-3.85276 14.524,-9.97914 21.7358,-18.2776 10.1764,-11.7579 19.0689,-28.9488 26.478,-51.4748 7.41024,-22.6252 11.165,-43.6689 11.165,-63.1335 0,-21.8339 -5.1378,-38.5311 -15.215,-50.1898 -10.1764,-11.6587 -22.9217,-17.4874 -38.3351,-17.4874 -16.598,0 -32.0103,6.42166 -46.0406,19.1669 -14.1284,12.8445 -24.6992,31.1221 -31.9122,54.9331 -7.11378,23.7118 -10.6701,44.7555 -10.6701,63.0343z"/>
   <g>
    <polygon id="_292111248" class="fil0" points="1408,799.418 1408,1116.47 1038.3,1199.51 639.999,1117.05 639.999,799.418 1010.77,905.352 1037.23,905.352 "/>
    <polygon id="_293118160" class="fil0" points="442.047,667.189 442.047,995.107 378.045,995.107 378.045,667.189 "/>
    <path id="_292115608" class="fil0" d="M410.046 961.133c22.578,0 42.7465,10.2024 57.0969,26.7 13.3028,15.2917 21.5327,36.137 21.5327,58.9016 0,22.7658 -8.22993,43.6099 -21.5327,58.9016 -14.3504,16.4977 -34.5189,26.7 -57.0969,26.7 -22.5792,0 -42.7465,-10.2024 -57.0969,-26.7 -13.3028,-15.2917 -21.5327,-36.1359 -21.5327,-58.9016 0,-22.7646 8.22993,-43.6099 21.5327,-58.9016 14.3504,-16.4977 34.5177,-26.7 57.0969,-26.7z"/>
    <polygon id="_292117456" class="fil0" points="1032.75,377.567 1412.75,486.139 1792.75,594.71 1792.75,656.21 1412.75,764.782 1032.75,873.353 1015.25,873.353 635.249,764.782 255.249,656.21 255.249,594.71 635.249,486.139 1015.25,377.567 "/>
   </g>
  </g>
 </g>
 <rect class="fil1" width="2048" height="2048"/>
</svg>
